<?xml version="1.0" encoding="utf-8"?>
<!-- Generator: Adobe Illustrator 19.2.0, SVG Export Plug-In . SVG Version: 6.00 Build 0)  -->
<svg version="1.1" id="Layer_1" xmlns="http://www.w3.org/2000/svg" xmlns:xlink="http://www.w3.org/1999/xlink" x="0px" y="0px"
	 width="112px" height="20px" viewBox="0 0 112 20" enable-background="new 0 0 112 20" xml:space="preserve">
<path fill="#363839" d="M111.827,4.768v14.244h-2.743l-0.573-1.089c0.332-0.518,0.553-0.978,0.694-1.337
	c-0.103-0.052-0.067-0.034-0.17-0.086c-0.229,0.338-0.493,0.648-0.783,0.93l0,0.001l-0.001-0.002
	c-1.401,1.36-3.406,2.054-4.988,2.054c-3.796,0-6.306-2.729-6.306-6.589V4.768h3.577v7.75c0,2.416,1.286,3.953,3.577,3.953
	c2.165,0,4.141-1.726,4.141-4.392v-7.31H111.827z M55.456,4.298c-1.582,0-3.587,0.693-4.989,2.054c0,0-0.387,0.373-0.883,0.946
	c-1.047-1.854-2.965-3-5.423-3c-1.582,0-3.587,0.693-4.989,2.054V6.346L39.17,6.349c-0.29,0.281-0.554,0.591-0.783,0.93
	c-0.103-0.052-0.067-0.034-0.17-0.086c0.175-0.445,0.472-1.045,0.954-1.722V4.768h-3.577v14.244h3.577v-7.31
	c0-2.667,1.977-4.392,4.141-4.392c2.29,0,3.577,1.537,3.577,3.953v7.75h3.577l0,0v-7.31c0-2.667,1.977-4.392,4.141-4.392
	c2.29,0,3.577,1.537,3.577,3.953v7.75h3.577v-8.126C61.762,7.027,59.252,4.298,55.456,4.298z M80.178,11.897
	c0,0.356-0.026,0.707-0.074,1.05c0,0-13.903,0-13.899,0h-0.004c0.328,2.079,2.307,3.698,5.197,3.698c2.402,0,3.756-0.74,4.695-2.011
	h3.746c-1.346,2.94-4.15,4.853-8.348,4.85c-5.615-0.004-8.844-3.406-8.841-7.599c0.003-4.193,2.951-7.591,8.747-7.586
	C76.992,4.302,80.181,7.703,80.178,11.897z M76.571,10.536c-0.608-1.863-2.407-3.441-5.171-3.443
	c-2.713-0.002-4.501,1.581-5.111,3.443H76.571z M89.559,4.298c-1.582,0-3.587,0.693-4.989,2.054V6.346L84.569,6.35
	c-0.29,0.281-0.554,0.591-0.783,0.93c-0.103-0.052-0.067-0.034-0.17-0.086c0.175-0.445,0.472-1.045,0.954-1.722V4.768h-3.577v14.244
	h3.577v-7.31c0-2.667,1.977-4.392,4.141-4.392c2.29,0,3.577,1.537,3.577,3.953v7.75h3.577v-8.126
	C95.866,7.027,93.356,4.298,89.559,4.298z M25.674,6.839h-4.218l0.235-3.063h10.631l0.602-2.796H18.487l-0.669,8.707h7.955
	c3.779,0,5.212,1.557,5.212,3.478s-1.664,3.478-4.915,3.478s-4.915-1.557-4.915-3.478l-3.577-0.005c0,3.492,2.874,6.322,8.492,6.322
	c5.617,0,8.491-2.831,8.491-6.322S32.531,6.839,25.674,6.839z M16.81,6.839c0-3.492-2.874-6.322-8.492-6.322
	c-5.617,0-8.491,2.831-8.491,6.322l3.577,0.005c0-1.921,1.664-3.478,4.915-3.478s4.915,1.557,4.915,3.478
	c0,1.483-0.694,2.354-3.534,4.108c-3.644,2.25-9.872,5.185-9.872,5.185v2.875H16.81v-2.875H5.852c0,0,5.995-2.678,8.756-4.885
	C16.033,10.113,16.81,8.585,16.81,6.839z"/>
<g>
	<rect fill="none" width="112" height="20"/>
</g>
</svg>
