<?xml version="1.0" encoding="utf-8"?>
<!-- Generator: Adobe Illustrator 19.2.0, SVG Export Plug-In . SVG Version: 6.00 Build 0)  -->
<svg version="1.1" id="Layer_1" xmlns="http://www.w3.org/2000/svg" xmlns:xlink="http://www.w3.org/1999/xlink" x="0px" y="0px"
	 width="96px" height="56px" viewBox="0 0 96 56" enable-background="new 0 0 96 56" xml:space="preserve">
<path fill="#D1D3D4" d="M72.464,28c0-15.464-12.536-28-28-28s-28,12.536-28,28s12.536,28,28,28c0.266,0,21.792,0,21.792,0V45.574
	C70.136,40.769,72.464,34.657,72.464,28z"/>
<path fill="#FFFFFF" d="M40.108,26.585l-4.292-8.388V8.072H11.187V51H25v-9.474l6.25,0.893c2.41,0.344,4.566-1.526,4.566-3.96
	V28.197l3.448-0.158C39.99,28.006,40.439,27.232,40.108,26.585z"/>
<polygon fill="#F05565" points="51.5,38 59.608,56 70.5,56 66.424,38 "/>
<g>
	<path fill="#FFFFFF" d="M74,56h-8c-2.209,0-4-1.791-4-4l0,0h12V56z"/>
	<path fill="#FFFFFF" d="M72,51h-8c-2.209,0-4-1.791-4-4l0,0h12V51z"/>
	<path fill="#FFFFFF" d="M71,46h-9c-2.209,0-4-1.791-4-4l0,0h13V46z"/>
</g>
<path fill="#F05565" d="M90,12c-6.403,6.403-15.087,10-24.142,10H51c-2.761,0-5,2.239-5,5v10c0,2.761,2.239,5,5,5h14.858
	C74.913,42,83.597,45.597,90,52c1.105,0,2-0.895,2-2V14C92,12.895,91.105,12,90,12z"/>
<path fill="#363839" d="M23.25,51h-16v-8h5.754C17.85,43,22.075,46.298,23.25,51L23.25,51z"/>
<path fill="#363839" d="M7,36L7,36c8.995-2.842,16.56-9.02,21.144-17.264l1.455-2.618C31.698,12.342,35.679,10,40,10l0,0h0.5
	c1.933,0,3.5-1.567,3.5-3.5l0,0C44,4.567,42.433,3,40.5,3H18.812C11.323,3,5.382,9.311,5.836,16.786L7,36z"/>
<path fill="#FFFFFF" d="M20,34c-3.314,0-6-2.686-6-6l0,0c0-3.314,2.686-6,6-6V34z"/>
<rect fill="none" width="96" height="56"/>
<path fill="#FFFFFF" d="M53.75,36c-3.753,1.608-7.495,6.373-9.33,12h3.83c4.633,0,8.444-3.5,8.941-8h3.559c2.209,0,4-1.791,4-4
	H53.75z"/>
</svg>
