<?xml version="1.0" encoding="utf-8"?>
<!-- Generator: Adobe Illustrator 19.2.0, SVG Export Plug-In . SVG Version: 6.00 Build 0)  -->
<svg version="1.1" id="Layer_1" xmlns="http://www.w3.org/2000/svg" xmlns:xlink="http://www.w3.org/1999/xlink" x="0px" y="0px"
	 width="80px" height="56px" viewBox="0 0 80 56" enable-background="new 0 0 80 56" xml:space="preserve">
<circle fill="#363839" cx="49" cy="28" r="28"/>
<rect fill="none" width="80" height="56"/>
<g>
	<path fill="#FFFFFF" d="M27.244,18.711c-0.525-0.438-1.179-0.984-1.179-2.053c0-1.067,0.654-1.612,1.18-2.05
		c0.524-0.437,0.82-0.711,0.82-1.283s-0.296-0.846-0.82-1.283c-0.525-0.438-1.18-0.983-1.18-2.05s0.654-1.612,1.18-2.05
		c0.523-0.436,1.166,0.331,0.64,0.769c-0.523,0.436-0.82,0.711-0.82,1.282s0.296,0.846,0.82,1.282
		c0.526,0.438,1.18,0.983,1.18,2.051s-0.654,1.613-1.18,2.051c-0.523,0.436-0.82,0.711-0.82,1.282c0,0.573,0.296,0.848,0.82,1.285
		C28.411,18.382,27.769,19.148,27.244,18.711z"/>
</g>
<g>
	<path fill="#FFFFFF" d="M32.466,18.711c-0.525-0.438-1.179-0.984-1.179-2.053c0-1.067,0.654-1.612,1.18-2.05
		c0.524-0.437,0.82-0.711,0.82-1.283s-0.296-0.846-0.82-1.283c-0.525-0.438-1.18-0.983-1.18-2.05s0.654-1.612,1.18-2.05
		c0.523-0.436,0.82-0.711,0.82-1.282c0-0.57-0.296-0.844-0.82-1.28c-0.526-0.438,0.116-1.204,0.64-0.769
		c0.526,0.438,1.18,0.982,1.18,2.048c0,1.067-0.654,1.612-1.18,2.05c-0.523,0.436-0.82,0.711-0.82,1.282s0.296,0.846,0.82,1.282
		c0.526,0.438,1.18,0.983,1.18,2.051s-0.654,1.613-1.18,2.051c-0.523,0.436-0.82,0.711-0.82,1.282c0,0.573,0.296,0.848,0.82,1.285
		C33.633,18.382,32.991,19.148,32.466,18.711z"/>
</g>
<g>
	<path fill="#FFFFFF" d="M38.51,13.325c0-0.572-0.296-0.846-0.82-1.283c-0.525-0.438-1.18-0.983-1.18-2.05s0.654-1.612,1.18-2.05
		c0.523-0.436,0.82-0.711,0.82-1.282c0-0.57-0.296-0.844-0.82-1.28c-0.526-0.438-1.18-0.982-1.18-2.048
		c0-1.067,0.654-1.612,1.18-2.05c0.523-0.436,1.166,0.331,0.64,0.769c-0.523,0.436-0.82,0.711-0.82,1.282
		c0,0.57,0.296,0.844,0.82,1.28c0.526,0.438,1.18,0.982,1.18,2.048c0,1.067-0.654,1.612-1.18,2.05
		c-0.523,0.436-0.82,0.711-0.82,1.282s0.296,0.846,0.82,1.282c0.526,0.438,1.18,0.983,1.18,2.051S38.51,13.897,38.51,13.325z"/>
</g>
<g>
	<path fill="#FFFFFF" d="M42.912,12.042c-0.525-0.438-1.18-0.983-1.18-2.05s0.654-1.612,1.18-2.05
		c0.524-0.436,0.82-0.711,0.82-1.282c0-0.57-0.296-0.844-0.819-1.28c-0.526-0.438-1.181-0.982-1.181-2.048
		c0-1.067,0.654-1.612,1.18-2.05c0.524-0.436,0.82-0.711,0.82-1.282h1c0,1.067-0.654,1.612-1.18,2.05
		c-0.524,0.436-0.82,0.711-0.82,1.282c0,0.57,0.296,0.844,0.819,1.28c0.526,0.438,1.181,0.982,1.181,2.048
		c0,1.067-0.654,1.612-1.18,2.05c-0.524,0.436-0.82,0.711-0.82,1.282s0.296,0.846,0.82,1.282
		C44.078,11.712,43.436,12.479,42.912,12.042z"/>
</g>
<g>
	<path fill="#F05565" d="M39,17c0,9.941-8.059,18-18,18S3,26.941,3,17H39z"/>
</g>
<path fill="#F05565" d="M39,35c0,9.941-8.059,18-18,18S3,44.941,3,35H39z"/>
<g>
	<g>
		<g>
			<path fill="#FFFFFF" d="M60.909,31c-2.792,0-5.584,1.065-7.714,3.195c-4.26,4.26-4.26,11.168,0,15.428
				c2.13,2.13,4.922,3.195,7.714,3.195s5.584-1.065,7.714-3.195c4.26-4.26,4.26-11.168,0-15.428C66.493,32.065,63.701,31,60.909,31
				L60.909,31z"/>
		</g>
	</g>
</g>
<g>
	<path fill="#363839" d="M65.805,29.377c-0.371-0.371-1.81-1.81-2.182-2.182c-4.26-4.26-11.168-4.26-15.428,0s-4.26,11.168,0,15.428
		c0.371,0.371,1.81,1.81,2.182,2.182c4.26,4.26,11.168,4.26,15.428,0S70.065,33.637,65.805,29.377z"/>
</g>
<g>
	<path fill="#FFFFFF" d="M55.909,24c-2.792,0-5.584,1.065-7.714,3.195c-4.26,4.26-4.26,11.168,0,15.428
		c2.13,2.13,4.922,3.195,7.714,3.195s5.584-1.065,7.714-3.195c4.26-4.26,4.26-11.168,0-15.428C61.493,25.065,58.701,24,55.909,24
		L55.909,24z"/>
</g>
<path fill="#363839" d="M60.805,22.377c-0.371-0.371-1.81-1.81-2.182-2.182c-4.26-4.26-11.168-4.26-15.428,0s-4.26,11.168,0,15.428
	c0.371,0.371,1.81,1.81,2.182,2.182c4.26,4.26,11.168,4.26,15.428,0S65.065,26.637,60.805,22.377z"/>
<g>
	<g>
		<path fill="#FFFFFF" d="M50.909,17c-2.792,0-5.584,1.065-7.714,3.195c-4.26,4.26-4.26,11.168,0,15.428
			c2.13,2.13,4.922,3.195,7.714,3.195s5.584-1.065,7.714-3.195c4.26-4.26,4.26-11.168,0-15.428C56.493,18.065,53.701,17,50.909,17
			L50.909,17z"/>
	</g>
</g>
<g>
	<path fill="#363839" d="M55.805,15.377c-0.371-0.371-1.81-1.81-2.182-2.182c-4.26-4.26-11.168-4.26-15.428,0s-4.26,11.168,0,15.428
		c0.371,0.371,1.81,1.81,2.182,2.182c4.26,4.26,11.168,4.26,15.428,0S60.065,19.637,55.805,15.377z"/>
</g>
<g>
	<g>
		<path fill="#FFFFFF" d="M45.909,10c-2.792,0-5.584,1.065-7.714,3.195c-4.26,4.26-4.26,11.168,0,15.428
			c2.13,2.13,4.922,3.195,7.714,3.195s5.584-1.065,7.714-3.195c4.26-4.26,4.26-11.168,0-15.428C51.493,11.065,48.701,10,45.909,10
			L45.909,10z"/>
	</g>
</g>
<g>
	<path fill="#363839" d="M44.593,21.864v1.54h3.601v1.04h-3.601v2.16H43.12v-2.16h-1.574v-1.04h1.574v-1.54h-1.574v-1.123h1.574
		v-5.528h3.484c2.127,0,3.669,1.307,3.669,3.367c0,2.044-1.541,3.284-3.669,3.284H44.593z M44.593,20.743h1.86
		c1.44,0,2.378-0.788,2.378-2.144c0-1.357-0.938-2.127-2.378-2.127h-1.86V20.743z"/>
</g>
</svg>
