<svg xmlns="http://www.w3.org/2000/svg" viewBox="0 0 236.4 227">
  <path d="M34.1 37.3c5.7-5.7 7.4-17.4 5-34.7L38.7 0l-2.4 1c-.3.1-8.5 3.7-14.7 10-9.1 9.1-9.7 19.1-1.5 28.9l.3.3.4.2h.1c0 2.4.2 4.4.5 6-4.8-3.3-11.2-5.8-19.3-6.3C1 40 .1 40.9 0 42c-.1 1.1.8 2 1.9 2.1 12.7.6 20.4 7 24.7 12.3-2.5 1.4-6.9 4.3-10.8 8.1C8.7 71.6 6.4 79.3 9 86.8c6 17.3 28.7 28.8 51.5 26.1 2.7-.3 4.9-1.4 6.7-3.2 2.9-2.9 3.9-7.2 4.1-10 2.8-.3 7.1-1.2 10-4.1 1.8-1.8 2.8-4 3.2-6.7 2.7-22.8-8.7-45.5-26.1-51.5-7.5-2.6-15.2-.3-22.3 6.8-3.1 3.1-5.6 6.6-7.1 9.2-1.5-1.7-3.2-3.5-5.4-5.2-.3-1.5-.7-4-.8-7.2 2.6.3 7.4.2 11.3-3.7zm-9.7-23.5c2.3-2.3 5-4.3 7.4-5.8-7.3 9.5-10 19-10.8 26.4-4.5-7.1-3.4-13.8 3.4-20.6zm11.1-7.2c2 17.4-1.2 24.8-4.3 27.9-3.1 3.1-7.1 2.7-8.5 2.4.5-8.1 3.3-19.3 12.8-30.3zM38.8 47c6-6 12.1-8 18.1-5.8 15.6 5.5 25.9 26.2 23.4 47.3-.2 1.8-.9 3.2-2 4.4-2.8 2.8-7.7 3-9.1 3-.5 0-1 .2-1.4.6s-.6.8-.6 1.4c0 1.4-.3 6.3-3 9.1-1.1 1.1-2.6 1.8-4.4 2-21.1 2.5-41.8-7.8-47.3-23.4-2.1-6-.1-12.1 5.8-18.1 3.8-3.8 8.1-6.5 10.3-7.7 1.4 2.2 2 3.8 2.1 4 .1.3.3.5.5.7-2.3 1.6-4.6 2.5-6.3 2.2-.5-.1-1.1.3-1.1.8-.1.5.3 1.1.8 1.1 2.9.5 6.9-1.4 10.3-4.7 3.5-3.5 5.3-7.7 4.7-10.6-.1-.5-.7-.9-1.2-.7-.5.1-.9.7-.7 1.2.5 2-.9 5.2-3.4 8-.4-.9-1.3-2.7-2.9-5 1.4-2.4 4-6.3 7.4-9.8zM190.5 168.2c5.7 5.7 17.4 7.4 34.7 5l2.6-.4-1-2.4c-.1-.3-3.7-8.5-10-14.7-9.1-9.1-19.1-9.7-28.9-1.5l-.3.3-.2.4v.1c-2.4 0-4.4.2-6 .5 3.3-4.8 5.8-11.2 6.3-19.3.1-1.1-.8-2-1.9-2.1s-2 .8-2.1 1.9c-.6 12.7-7 20.4-12.3 24.7-1.4-2.5-4.3-6.9-8.1-10.8-7.1-7.1-14.8-9.4-22.3-6.8-17.3 6-28.8 28.7-26.1 51.5.3 2.7 1.4 4.9 3.2 6.7 2.9 2.9 7.2 3.9 10 4.1.3 2.8 1.2 7.1 4.1 10 1.8 1.8 4 2.8 6.7 3.2 22.8 2.7 45.5-8.7 51.5-26.1 2.6-7.5.3-15.2-6.8-22.3-3.1-3.1-6.6-5.6-9.2-7.1 1.7-1.5 3.5-3.2 5.2-5.4 1.5-.3 4-.7 7.2-.8-.3 2.6-.2 7.4 3.7 11.3zm23.4-9.7c2.3 2.3 4.3 5 5.8 7.4-9.5-7.3-19-10-26.4-10.8 7.1-4.5 13.9-3.4 20.6 3.4zm7.3 11.1c-17.4 2-24.8-1.2-27.9-4.3-3.1-3.1-2.7-7.1-2.4-8.5 8.1.5 19.3 3.3 30.3 12.8zm-40.4 3.3c6 6 8 12.1 5.8 18.1-5.5 15.6-26.2 25.9-47.3 23.4-1.8-.2-3.2-.9-4.4-2-2.8-2.8-3-7.7-3-9.1 0-.5-.2-1-.6-1.4s-.8-.6-1.4-.6c-1.4 0-6.3-.3-9.1-3-1.1-1.1-1.8-2.6-2-4.4-2.5-21.1 7.8-41.8 23.4-47.3 6-2.1 12.1-.1 18.1 5.8 3.8 3.8 6.5 8.1 7.7 10.3-2.2 1.4-3.8 2-4 2.1-.3.1-.5.3-.7.5-1.6-2.3-2.5-4.6-2.2-6.3.1-.5-.3-1.1-.8-1.1-.5-.1-1.1.3-1.1.8-.5 2.9 1.4 6.9 4.7 10.3 3.5 3.5 7.7 5.3 10.6 4.7.5-.1.9-.7.7-1.2-.1-.5-.7-.9-1.2-.7-2 .5-5.2-.9-8-3.4.9-.4 2.7-1.3 5-2.9 2.3 1.4 6.3 4 9.8 7.4z"/>
</svg>
