<svg xmlns="http://www.w3.org/2000/svg" viewBox="0 0 172.8 176.4">
  <path d="M23.7 24.1v18.5h-4v-14c-.2.2-.5.4-.8.5-.3.2-.6.3-1 .5-.3.1-.7.3-1 .4-.4.1-.7.2-1.1.2v-3.4c1-.3 2-.7 2.9-1.2s1.7-1 2.5-1.6h2.5v.1zM33.4 39.3h7.7v3.3h-12v-1.4c0-.9.2-1.8.5-2.5s.7-1.4 1.2-2 1-1.1 1.5-1.6c.6-.5 1.1-.9 1.6-1.2.5-.4 1-.7 1.4-1.1.4-.3.7-.7 1-1s.5-.7.6-1 .2-.7.2-1.1c0-.8-.2-1.4-.7-1.8-.4-.4-1.1-.6-2-.6-1.6 0-3 .6-4.5 1.9v-3.5c1.6-1 3.4-1.5 5.3-1.5.9 0 1.7.1 2.5.4.7.2 1.3.6 1.9 1 .5.4.9 1 1.2 1.6.3.6.4 1.3.4 2.1s-.1 1.6-.4 2.2-.6 1.2-1 1.8c-.4.5-.9 1-1.5 1.5-.6.4-1.1.9-1.7 1.3l-1.2.9c-.4.3-.7.6-1 .8-.3.3-.5.5-.7.8-.2.2-.3.4-.3.7zM44.4 42v-3.5c1.2.9 2.6 1.3 4.2 1.3 1 0 1.8-.2 2.4-.7.6-.4.9-1 .9-1.8s-.4-1.4-1.1-1.9-1.7-.7-2.9-.7h-1.7v-3.1h1.6c2.4 0 3.5-.8 3.5-2.4 0-1.5-.9-2.2-2.7-2.2-1.2 0-2.4.4-3.5 1.2v-3.1c1.3-.6 2.8-1 4.4-1 1.9 0 3.3.4 4.3 1.3 1 .8 1.5 1.9 1.5 3.2 0 2.4-1.2 3.9-3.6 4.4v.1c1.3.2 2.3.6 3 1.4s1.1 1.7 1.1 2.8c0 1.7-.6 3-1.9 4-1.2 1-2.9 1.5-5.1 1.5-1.7.1-3.2-.2-4.4-.8zM35.4 3.1C48 3.1 58.9 10.9 63.3 22h3.3C62 9.2 49.7 0 35.3 0S8.6 9.2 4 22h3.3C12 10.9 22.8 3.1 35.4 3.1z"/>
  <path d="M50.6 22h1.9c-3.7-5.6-9.9-9.2-17.1-9.2-7.1 0-13.4 3.7-17.1 9.2h1.9c3.4-4.7 9-7.7 15.2-7.7 6.3 0 11.8 3 15.2 7.7zM35.4 54.3c7.1 0 13.4-3.7 17.1-9.2h-1.9c-3.4 4.7-9 7.7-15.2 7.7s-11.7-3-15.2-7.7h-1.9c3.7 5.6 10 9.2 17.1 9.2z"/>
  <path d="M35.4 64c-12.6 0-23.5-7.8-27.9-18.9H4.2c4.6 12.8 16.9 22 31.3 22s26.7-9.2 31.3-22h-3.3C58.9 56.2 48.1 64 35.4 64z"/>
  <path d="M63.9 43.8v-2.4c-1.7-.1-3.3-.5-4.3-1.1l.8-3c1.1.6 2.6 1.1 4.2 1.1 1.4 0 2.4-.6 2.4-1.6s-.8-1.6-2.7-2.2c-2.7-.9-4.6-2.2-4.6-4.6 0-2.2 1.6-4 4.3-4.5v-2.4h2.5v2.2c1.7.1 2.8.4 3.7.8l-.7 2.9c-.7-.3-1.8-.9-3.7-.9-1.6 0-2.2.7-2.2 1.4 0 .8.9 1.4 3 2.2 3 1.1 4.2 2.5 4.2 4.7 0 2.3-1.6 4.2-4.5 4.7v2.6l-2.4.1z"/>
  <path d="M4.3 43.8v-2.4c-1.7-.1-3.3-.5-4.3-1.1l.8-3c1.1.6 2.6 1.1 4.2 1.1 1.4 0 2.4-.6 2.4-1.6s-.8-1.6-2.7-2.2C2 33.7.1 32.4.1 30c0-2.2 1.6-4 4.3-4.5v-2.4h2.5v2.2c1.7.1 2.8.4 3.7.8L9.9 29c-.7-.3-1.8-.9-3.7-.9-1.6 0-2.2.7-2.2 1.4 0 .8.9 1.4 3 2.2 3 1.1 4.2 2.5 4.2 4.7 0 2.3-1.6 4.2-4.5 4.7v2.6l-2.4.1z"/>
  <path d="M109.3 113.4v18.5h-4v-14c-.2.2-.5.4-.8.5-.3.2-.6.3-1 .5-.3.1-.7.3-1 .4-.4.1-.7.2-1.1.2v-3.4c1-.3 2-.7 2.9-1.2s1.7-1 2.5-1.6h2.5v.1zM119.1 128.6h7.7v3.3h-12.1v-1.4c0-.9.2-1.8.5-2.5s.7-1.4 1.2-2 1-1.1 1.5-1.6c.6-.5 1.1-.9 1.6-1.2.5-.4 1-.7 1.4-1.1.4-.3.7-.7 1-1s.5-.7.6-1 .2-.7.2-1.1c0-.8-.2-1.4-.7-1.8-.4-.4-1.1-.6-2-.6-1.6 0-3 .6-4.5 1.9V115c1.6-1 3.4-1.5 5.3-1.5.9 0 1.7.1 2.5.4.7.2 1.3.6 1.9 1 .5.4.9 1 1.2 1.6.3.6.4 1.3.4 2.1s-.1 1.6-.4 2.2-.6 1.2-1 1.8c-.4.5-.9 1-1.5 1.5-.6.4-1.1.9-1.7 1.3l-1.2.9c-.4.3-.7.6-1 .8-.3.3-.5.5-.7.8-.1.2-.2.5-.2.7zM130 131.3v-3.5c1.2.9 2.6 1.3 4.2 1.3 1 0 1.8-.2 2.4-.7.6-.4.9-1 .9-1.8s-.4-1.4-1.1-1.9c-.7-.4-1.7-.7-2.9-.7h-1.7v-2.9h1.6c2.4 0 3.5-.8 3.5-2.4 0-1.5-.9-2.2-2.7-2.2-1.2 0-2.4.4-3.5 1.2v-3.3c1.3-.6 2.8-1 4.4-1 1.9 0 3.3.4 4.3 1.3 1 .8 1.5 1.9 1.5 3.2 0 2.4-1.2 3.9-3.6 4.4v.1c1.3.2 2.3.6 3 1.4s1.1 1.7 1.1 2.8c0 1.7-.6 3-1.9 4-1.2 1-2.9 1.5-5.1 1.5-1.7.1-3.2-.2-4.4-.8zM121.1 92.4c12.6 0 23.5 7.8 27.9 18.9h3.3c-4.6-12.8-16.9-22-31.3-22s-26.7 9.2-31.3 22H93c4.6-11.1 15.5-18.9 28.1-18.9z"/>
  <path d="M136.3 111.3h1.9c-3.7-5.6-9.9-9.2-17.1-9.2-7.1 0-13.4 3.7-17.1 9.2h1.9c3.4-4.7 9-7.7 15.2-7.7s11.7 3 15.2 7.7zM121.1 143.7c7.1 0 13.4-3.7 17.1-9.2h-1.9c-3.4 4.7-9 7.7-15.2 7.7s-11.7-3-15.2-7.7H104c3.7 5.5 10 9.2 17.1 9.2z"/>
  <path d="M121.1 153.3c-12.6 0-23.5-7.8-27.9-18.9h-3.3c4.6 12.8 16.9 22 31.3 22s26.7-9.2 31.3-22h-3.3c-4.6 11.1-15.5 18.9-28.1 18.9z"/>
  <path d="M149.6 133.1v-2.4c-1.7-.1-3.3-.5-4.3-1.1l.8-3c1.1.6 2.6 1.1 4.2 1.1 1.4 0 2.4-.6 2.4-1.6s-.8-1.6-2.7-2.2c-2.7-.9-4.6-2.2-4.6-4.6 0-2.2 1.6-4 4.3-4.5v-2.4h2.5v2.2c1.7.1 2.8.4 3.7.8l-.7 2.9c-.7-.3-1.8-.9-3.7-.9-1.6 0-2.2.7-2.2 1.4 0 .8.9 1.4 3 2.2 3 1.1 4.2 2.5 4.2 4.7 0 2.3-1.6 4.2-4.5 4.7v2.6l-2.4.1z"/>
  <path d="M90 133.1v-2.4c-1.7-.1-3.3-.5-4.3-1.1l.8-3c1.1.6 2.6 1.1 4.2 1.1 1.4 0 2.4-.6 2.4-1.6s-.8-1.6-2.7-2.2c-2.7-.9-4.6-2.2-4.6-4.6 0-2.2 1.6-4 4.3-4.5v-2.4h2.5v2.2c1.7.1 2.8.4 3.7.8l-.7 2.9c-.7-.3-1.8-.9-3.7-.9-1.6 0-2.2.7-2.2 1.4 0 .8.9 1.4 3 2.2 3 1.1 4.2 2.5 4.2 4.7 0 2.3-1.6 4.2-4.5 4.7v2.6l-2.4.1z"/>
</svg>
