<svg xmlns="http://www.w3.org/2000/svg" viewBox="0 0 114.4 121.8">
  <path d="M5 26c.2.9.3 1.7.4 2.4 0 0 6 2.9 16.6 2.9 10 0 16.6-2.9 16.6-2.9.1-.7.2-1.5.4-2.5-2.9 1-8.9 2.6-17 2.6-8.3.1-14.1-1.5-17-2.5z"/>
  <path d="M33.4 14.1c-.6 0-1.2-.1-1.8-.2C27.3 12.8 24.1 6.4 22 0c-2.1 6.4-5.3 12.8-9.6 13.9-.6.1-1.1.2-1.8.2-3.2 0-7-2.2-10.6-5.2 2 5.6 3.6 10.9 4.5 14.8 1.9.8 8 2.9 17.4 2.9 9 0 15.5-2.2 17.4-2.9.9-3.9 2.5-9.2 4.5-14.8-3.5 3-7.3 5.2-10.4 5.2zm-19.6 6.3c0 .2-.1.4-.3.5l-1.2.8c-.2.1-.5.1-.7 0l-1.2-.8c-.2-.1-.3-.3-.3-.5v-1.9c0-.2.1-.4.3-.5l1.2-.8c.2-.1.5-.1.7 0l1.2.8c.2.1.3.3.3.5v1.9zm11.1 1.2c0 .2-.1.4-.3.5l-2.3 1.6c-.2.1-.5.1-.7 0l-2.3-1.6c-.2-.1-.3-.3-.3-.5v-3.5c0-.2.1-.4.3-.5l2.3-1.6c.2-.1.5-.1.7 0l2.3 1.6c.2.1.3.3.3.5v3.5zm8.9-1.2c0 .2-.1.4-.3.5l-1.2.8c-.2.1-.5.1-.7 0l-1.2-.8c-.2-.1-.3-.3-.3-.5v-1.9c0-.2.1-.4.3-.5l1.2-.8c.2-.1.5-.1.7 0l1.2.8c.2.1.3.3.3.5v1.9z"/>
  <path d="M62.9 88.3c.2.9.3 1.7.4 2.4 0 0 6 2.9 16.6 2.9 10 0 16.6-2.9 16.6-2.9.1-.7.2-1.5.4-2.5-2.9 1-8.9 2.6-17 2.6-8.4 0-14.2-1.5-17-2.5z"/>
  <path d="M91.2 76.3c-.6 0-1.2-.1-1.8-.2-4.3-1.1-7.5-7.5-9.6-13.9-2.1 6.4-5.3 12.8-9.6 13.9-.6.1-1.1.2-1.8.2-3.2 0-7-2.2-10.6-5.2 2 5.6 3.6 10.9 4.5 14.8 1.9.8 8 2.9 17.4 2.9 9 0 15.5-2.2 17.4-2.9.9-3.9 2.5-9.2 4.5-14.8-3.5 3-7.2 5.2-10.4 5.2zm-19.6 6.3c0 .2-.1.4-.3.5l-1.2.8c-.2.1-.5.1-.7 0l-1.2-.8c-.2-.1-.3-.3-.3-.5v-1.9c0-.2.1-.4.3-.5l1.2-.8c.2-.1.5-.1.7 0l1.2.8c.2.1.3.3.3.5v1.9zm11.1 1.3c0 .2-.1.4-.3.5L80.1 86c-.2.1-.5.1-.7 0l-2.3-1.6c-.2-.1-.3-.3-.3-.5v-3.5c0-.2.1-.4.3-.5l2.3-1.6c.2-.1.5-.1.7 0l2.3 1.6c.2.1.3.3.3.5v3.5zm8.9-1.3c0 .2-.1.4-.3.5l-1.2.8c-.2.1-.5.1-.7 0l-1.2-.8c-.2-.1-.3-.3-.3-.5v-1.9c0-.2.1-.4.3-.5l1.2-.8c.2-.1.5-.1.7 0l1.2.8c.2.1.3.3.3.5v1.9z"/>
</svg>
