<svg xmlns="http://www.w3.org/2000/svg" viewBox="0 0 41.9 40.3">
  <path d="M0 1.2C0 .6.5 0 1.2 0h6.6C8.4 0 9 .5 9 1.2v.4l3.3.9c.6.2 1 .8.8 1.4V4l2.5 1.2c.6.3.8 1 .5 1.5L10 19.4c-.3.6-1 .8-1.5.5L2.6 17c-.1-.1-.2-.1-.3-.2l-.2-.2-.4-.1c-.1 0-.1 0-.2-.1l-.1-.1h-.1c-.6 0-1.2-.5-1.2-1.2L0 1.2zm.5 14.1c0 .4.3.7.7.7h6.6c.4 0 .7-.3.7-.7V1.2c0-.4-.3-.7-.7-.7H1.2C.8.5.5.8.5 1.2v14.1zM.9 1.9c0-.2.2-.3.4-.2.2.1.3.1.4 0s.1-.4.1-.5c-.1-.2 0-.4.2-.4h5.2c.2 0 .3.2.2.4-.1.2-.1.3 0 .5.1.1.3.2.5 0 .2-.1.4 0 .4.2v12.6c0 .2-.3.3-.4.2-.1-.2-.3-.2-.5 0-.1.1-.2.3 0 .5.1.2 0 .4-.2.4H2c-.2 0-.3-.2-.2-.4.2-.3.1-.5 0-.5-.2-.1-.4-.1-.4 0-.1.2-.4.1-.4-.2V1.9H.9zm.5 12.2h.1c.2 0 .4.1.5.2.2.2.3.4.3.7v.2h4.4v-.1c0-.3.1-.5.3-.7.2-.2.4-.3.7-.2V2.4h-.1c-.2 0-.5-.1-.6-.3-.2-.2-.3-.4-.2-.6v-.1H2.3c0 .2-.1.5-.2.6-.1.2-.4.3-.6.3h-.1v11.8zM2 8.2c0-.1.1-.2.2-.2h.4v-.2c.1-.4.3-.8.7-.9.1-.1.3 0 .3.1.1.1 0 .3-.1.3-.3.2-.5.6-.5 1.1 0 .4.3.8.7.8.2 0 .3-.1.4-.2.1-.2.1-.4.2-.6 0-.2.1-.5.2-.8s.4-.5.7-.5c.6 0 1.1.4 1.2.9v.1h.3c.1 0 .2.1.2.2s-.1.2-.2.2h-.3v.2c-.1.3-.3.5-.5.7-.1.1-.3.1-.3 0-.1-.1-.1-.3 0-.3.4-.3.5-.7.4-1.1-.1-.3-.3-.5-.5-.5h-.2c-.2 0-.3.1-.3.3-.1.2-.1.4-.2.7 0 .2-.1.5-.2.8s-.4.4-.8.5c-.4 0-.6-.1-.8-.4-.1-.1-.2-.2-.2-.4l-.1-.3h-.4c-.2-.3-.3-.4-.3-.5zm.1-2.7c0-.1 0-.1.1-.2 1.6-1 3.3-1.1 4.9 0 .1.1.1.2.1.3-.1.1-.2.1-.3.1-1.5-1-2.9-.9-4.4 0-.1.1-.3 0-.3-.1-.1 0-.2 0-.1-.1zm0 5.2v-.1c.1-.1.2-.1.3-.1 1.5.9 2.9 1 4.4 0 .1-.1.3 0 .3.1.1.1 0 .3-.1.3-1.6 1.1-3.3 1-4.9 0v-.2zm.8 5.7L8 17.8c.4.1.7-.1.8-.5l3.7-13.6c.1-.4-.1-.7-.5-.8L8.8 2v.4l2.4.7c.2 0 .2.3.1.4-.2.1-.2.3-.1.5.1.1.2.2.5.2.2-.1.3.1.3.3L8.7 16.6c-.1.2-.3.2-.4 0-.1-.1-.1-.2-.2-.2H7.8c-.2.1-.3.3-.1.5.1.2-.1.4-.3.3l-3.1-.8H2.9zm.6.7l5 2.4c.3.2.8 0 .9-.3l6.1-12.7c.2-.3 0-.8-.3-.9l-2.5-1.2-.1.4 1.8.9c.2.1.2.3 0 .4-.2.1-.2.3-.2.4.1.2.2.3.4.2.2 0 .3.2.2.3L9.3 18.3c-.1.2-.4.2-.4 0s-.2-.2-.3-.3c-.1 0-.1.1-.2.1 0 .1-.1.2 0 .3.1.2-.1.4-.3.3l-2.6-1.3-2-.3zm2.6-.7l1.2.3v-.1c0-.1 0-.1.1-.2H6.1zm1.8 1.8l.1.1-.1-.1zm1-11.9l.3.2c.3.2.7.5 1 .9.1.1.1.2 0 .3s-.2.1-.3 0c-.1-.2-.3-.3-.4-.5L9 6.8V9.7l.3.1c.1 0 .2.2.2.3s-.2.2-.3.2l-.2-.1v4.1l2.6-9.8h-.1c-.2 0-.4-.2-.5-.4s-.1-.4-.1-.7v-.1l-2-.5v3.5zm.3 11.4l.1.1 5.2-10.7h-.1c-.2-.1-.4-.3-.5-.5s-.1-.5.1-.7v-.1l-1.4-.7-.9 3.3c.3.3.6.7.8 1.1.1.1 0 .2-.1.3s-.2 0-.3-.1c-.1-.2-.2-.4-.4-.5l-.3-.3-.6 2.2v.5l-.1.1.3.1c.1.1.2.2.1.3s-.2.2-.3.1l-.3-.1-.6 2h.1l.1.1c0 .1-.1.2-.2.3h-.1l-.7 2.8c.2.2.2.3.1.4zM20.9 21.5c0-.6.5-1.2 1.2-1.2h6.6c.6 0 1.2.5 1.2 1.2v.4l3.3.9c.6.2 1 .8.8 1.4v.1l2.5 1.2c.6.3.8 1 .5 1.5l-6.1 12.7c-.3.6-1 .8-1.5.5l-5.9-2.9c-.1-.1-.2-.1-.3-.2l-.2-.2-.4-.1c-.1 0-.1 0-.2-.1l-.1-.1H22c-.6 0-1.2-.5-1.2-1.2V21.5h.1zm.5 14.1c0 .4.3.7.7.7h6.6c.4 0 .7-.3.7-.7V21.5c0-.4-.3-.7-.7-.7H22c-.4 0-.7.3-.7.7v14.1h.1zm.3-13.3c0-.2.2-.3.4-.2.2.1.3.1.4 0s.1-.4.1-.5c-.1-.2 0-.4.2-.4H28c.2 0 .3.2.2.4-.1.2-.1.3 0 .5.1.1.3.2.5 0 .2-.1.4 0 .4.2v12.6c0 .2-.3.3-.4.2-.1-.2-.3-.2-.5 0-.1.1-.2.3 0 .5.1.2 0 .4-.2.4h-5.2c-.2 0-.3-.2-.2-.4.2-.3.1-.5 0-.5-.2-.1-.4-.1-.4 0-.1.2-.4.1-.4-.2V22.3h-.1zm.5 12.2h.1c.2 0 .4.1.5.2.2.2.3.4.3.7v.2h4.4v-.1c0-.3.1-.5.3-.7.2-.2.4-.3.7-.2V22.8h-.1c-.2 0-.5-.1-.6-.3-.2-.2-.3-.4-.2-.6v-.1h-4.5c0 .2-.1.5-.2.6-.1.2-.4.3-.6.3h-.1v11.8zm.7-6c0-.1.1-.2.2-.2h.4v-.2c.1-.4.3-.8.7-.9.1-.1.3 0 .3.1.1.1 0 .3-.1.3-.3.2-.5.6-.5 1.1 0 .4.3.8.7.8.2 0 .3-.1.4-.2.1-.2.1-.4.2-.6 0-.2.1-.5.2-.8s.4-.5.7-.5c.6 0 1.1.4 1.2.9v.1h.3c.1 0 .2.1.2.2s-.1.2-.2.2h-.3v.2c-.1.3-.3.5-.5.7-.1.1-.3.1-.3 0-.1-.1-.1-.3 0-.3.4-.3.5-.7.4-1.1-.1-.3-.3-.5-.5-.5h-.2c-.2 0-.3.1-.3.3-.1.2-.1.4-.2.7 0 .2-.1.5-.2.8s-.4.4-.8.5c-.4 0-.6-.1-.8-.4-.1-.1-.2-.2-.2-.4l-.1-.3h-.4c-.2-.2-.3-.3-.3-.5zm0-2.7c0-.1 0-.1.1-.2 1.6-1 3.3-1.1 4.9 0 .1.1.1.2.1.3-.1.1-.2.1-.3.1-1.5-1-2.9-.9-4.4 0-.1.1-.3 0-.3-.1-.1 0-.1 0-.1-.1zm0 5.3V31c.1-.1.2-.1.3-.1 1.5.9 2.9 1 4.4 0 .1-.1.3 0 .3.1.1.1 0 .3-.1.3-1.6 1.1-3.3 1-4.9 0v-.2zm.8 5.6l5.1 1.4c.4.1.7-.1.8-.5L33.3 24c.1-.4-.1-.7-.5-.8l-3.2-.9v.4l2.4.7c.2 0 .2.3.1.4-.2.1-.2.3-.1.5.1.1.2.2.5.2.2-.1.3.1.3.3l-3.3 12.1c-.1.2-.3.2-.4 0-.1-.1-.1-.2-.2-.2H28.6c-.2.1-.3.3-.1.5.1.2-.1.4-.3.3l-3.1-.8h-1.4zm.7.7l5 2.4c.3.2.8 0 .9-.3l6.1-12.7c.2-.3 0-.8-.3-.9l-2.5-1.2-.1.4 1.8.9c.2.1.2.3 0 .4-.2.1-.2.3-.2.4.1.2.2.3.4.2.2 0 .3.2.2.3l-5.5 11.3c-.1.2-.4.2-.4 0s-.2-.2-.3-.3c-.1 0-.1.1-.2.1 0 .1-.1.2 0 .3.1.2-.1.4-.3.3l-2.6-1.3-2-.3zm2.6-.7l1.2.3v-.1c0-.1 0-.1.1-.2H27zm1.7 1.9l.1.1-.1-.1zm1.1-11.9l.3.2c.3.2.7.5 1 .9.1.1.1.2 0 .3s-.2.1-.3 0c-.1-.2-.3-.3-.4-.5l-.5-.4V30.1l.3.1c.1 0 .2.2.2.3s-.2.2-.3.2l-.2-.1v4.1l2.6-9.8h-.1c-.2 0-.4-.2-.5-.4s-.1-.4-.1-.7v-.1l-2-.5v3.5zm.2 11.4l.1.1 5.2-10.7h-.1c-.2-.1-.4-.3-.5-.5s-.1-.5.1-.7v-.1l-1.4-.7-.9 3.3c.3.3.6.7.8 1.1.1.1 0 .2-.1.3s-.2 0-.3-.1c-.1-.2-.2-.4-.4-.5l-.3-.3-.6 2.2v.5l-.1.1.3.1c.1.1.2.2.1.3s-.2.2-.3.1l-.3-.1-.6 2h.1l.1.1c0 .1-.1.2-.2.3h-.1l-.7 2.8c.2.1.2.2.1.4z"/>
</svg>
