<svg xmlns="http://www.w3.org/2000/svg" viewBox="0 0 118.4 118.6">
  <path d="M62.5 22.9l8.3-16.2H59.4v-2H74l-9.8 19.1-1.7-.9zM59.4 6.7zM84.3 22.9l8.3-16.2H81.2v-2h14.6L86 23.8l-1.7-.9zM81.2 6.7zM106.1 22.9l8.3-16.2H103v-2h14.7l-9.8 19.1zM3.1 80.5l8.3-16.2H0v-2h14.7L4.9 81.4l-1.8-.9zM0 64.3zM25 80.5l8.3-16.2H21.9v-2h14.6l-9.8 19.1-1.7-.9zm-3.1-16.2zM46.8 80.5l8.3-16.2H43.7v-2h14.6l-9.7 19.1z"/>
  <path d="M87.4 86v-3.5c-2 0-4.1-.7-5.3-1.5l.8-2.3c1.2.8 3 1.5 5 1.5 2.5 0 4.1-1.4 4.1-3.4 0-1.9-1.3-3.1-3.9-4.1-3.5-1.4-5.7-3-5.7-6 0-2.9 2-5 5.2-5.6v-3.5h2.1v3.3c2.1.1 3.5.6 4.5 1.2l-.9 2.3c-.7-.4-2.1-1.2-4.4-1.2-2.7 0-3.7 1.6-3.7 3 0 1.8 1.3 2.7 4.3 3.9 3.6 1.5 5.4 3.2 5.4 6.3 0 2.7-1.9 5.3-5.5 5.9v3.6h-2v.1z"/>
  <path d="M28 28.4v-3.5c-2 0-4.1-.7-5.3-1.5l.8-2.3c1.2.8 3 1.5 5 1.5 2.5 0 4.1-1.4 4.1-3.4 0-1.9-1.3-3.1-3.9-4.1-3.5-1.4-5.7-3-5.7-6 0-2.9 2-5 5.2-5.6V0h2.1v3.3c2.1.1 3.5.6 4.5 1.2l-.9 2.3c-.7-.4-2.1-1.2-4.4-1.2-2.7 0-3.7 1.6-3.7 3 0 1.8 1.3 2.7 4.3 3.9 3.6 1.5 5.4 3.2 5.4 6.3 0 2.7-1.9 5.3-5.5 5.9v3.6h-2v.1z"/>
</svg>
