<svg xmlns="http://www.w3.org/2000/svg" viewBox="0 0 239 244.7">
  <path d="M49.1 0H37.3c-.2 0-.3 0-.5.1L17.3 6.8h-.1c-.4.2-1.9.9-4.7 4.7C9.7 15.4 5.6 22.4.1 35.1c-.2.5-.1 1.1.2 1.5 3.2 3.7 9.4 7.2 18.5 7.2.7 0 1.4 0 2.2-.1l-.1-1.4h-1.4V98c0 .6.5 1.2 1.1 1.4.1 0 11.4 2.5 28.1 2.5.8 0 1.4-.6 1.4-1.4s-.6-1.4-1.4-1.4c-8.2 0-15.1-.6-20-1.2-2.4-.3-4.3-.6-5.6-.8-.6-.1-1.1-.2-1.5-.3-.2 0-.3-.1-.4-.1h-.1l-.3 1.4h1.4V42.4c0-.4-.2-.7-.4-1-.3-.3-.7-.4-1-.4-.7 0-1.3.1-2 .1-8.4 0-13.7-3.2-16.4-6.3l-1 .9 1.3.5c5.4-12.7 9.5-19.5 12.1-23.1 1.3-1.8 2.3-2.8 2.8-3.3.3-.3.5-.4.6-.5h.1l-.3-.6.3.6h.1l-.3-.6.3.6-.5-1.3.5 1.3 19.3-6.6h11.6c.8 0 1.4-.6 1.4-1.4-.2-.7-.9-1.3-1.6-1.3z"/>
  <path d="M22.4 42.4v-7.6c0-.8-.6-1.4-1.4-1.4s-1.4.6-1.4 1.4v7.6c0 .8.6 1.4 1.4 1.4.7 0 1.4-.6 1.4-1.4M36.2 2.5c0 .1 1 2.2 3.1 4.4 1 1.1 2.3 2.2 3.9 3.1 1.6.9 3.5 1.4 5.6 1.4.8 0 1.4-.6 1.4-1.4 0-.8-.6-1.4-1.4-1.4-1.6 0-3.1-.4-4.3-1.1-1.9-1-3.3-2.6-4.3-3.9-.5-.7-.9-1.3-1.1-1.7-.1-.2-.2-.4-.3-.5l-.1-.1c-.3-.7-1.2-1-1.8-.7-.8.4-1.1 1.3-.7 1.9z"/>
  <path d="M49.1 2.8h11.6L80 9.4l.5-1.3-.5 1.3.3-.6-.3.6h.1l.3-.6-.3.6s1.4.8 4 4.5c2.6 3.8 6.5 10.5 11.6 22.4l1.3-.5-1-.9c-2.7 3.1-8 6.3-16.4 6.3-.6 0-1.3 0-2-.1-.4 0-.8.1-1 .4-.3.3-.4.6-.4 1v55.7h1.4l-.3-1.4h-.1c-1.2.3-12 2.4-27.4 2.4-.8 0-1.4.6-1.4 1.4s.6 1.4 1.4 1.4c16.7 0 28-2.5 28.1-2.5.6-.1 1.1-.7 1.1-1.4V42.4h-1.4l-.1 1.4c.7 0 1.5.1 2.2.1 9.1 0 15.2-3.5 18.5-7.2.4-.4.4-1 .2-1.5-5.5-12.8-9.6-19.8-12.4-23.6-2.8-3.8-4.3-4.6-4.7-4.7h-.1L61.7.2c-.1 0-.3-.1-.5-.1H49.4c-.8 0-1.4.6-1.4 1.4-.3.6.3 1.3 1.1 1.3z"/>
  <path d="M78.6 42.4v-7.6c0-.8-.6-1.4-1.4-1.4s-1.4.6-1.4 1.4v7.6c0 .8.6 1.4 1.4 1.4.7 0 1.4-.6 1.4-1.4M59.5 1.4l.3.1-.3-.1.3.1-.3-.1s-.9 2-2.7 3.8c-.9.9-1.9 1.8-3.2 2.5-1.2.7-2.6 1.1-4.2 1.1-.8 0-1.4.6-1.4 1.4 0 .8.6 1.4 1.4 1.4 2.1 0 4-.6 5.6-1.4 2.4-1.3 4.1-3.2 5.2-4.7s1.7-2.8 1.7-2.8c.3-.7 0-1.5-.7-1.8-.6-.5-1.4-.2-1.7.5zM64.7 5.1c.4-.8.6-1.4.6-1.4.1-.4-.1-.8-.4-.9-.4-.1-.8.1-.9.4 0 .1-.2.5-.5 1.2-.2.3 0 .8.3.9.4.3.8.1.9-.2zm-3.4 4.6c.7-.7 1.4-1.5 1.9-2.2.2-.3.2-.7-.1-1-.3-.2-.7-.2-1 .1-.5.7-1.1 1.3-1.7 2-.3.3-.3.7 0 1 .2.4.7.4.9.1zM56.6 13c.9-.4 1.8-.9 2.5-1.4.3-.2.4-.7.2-1-.2-.3-.7-.4-1-.2-.7.5-1.5.9-2.3 1.3-.3.2-.5.6-.3.9.1.4.6.6.9.4zM51 14.5c1-.1 2-.3 2.8-.5.4-.1.6-.5.5-.8-.1-.4-.5-.6-.8-.5-.8.2-1.7.4-2.6.5-.4 0-.7.4-.6.8 0 .3.4.6.7.5zm-5.7-.2c.9.2 1.8.3 2.9.3.4 0 .7-.3.7-.7s-.3-.7-.7-.7c-1 0-1.8-.1-2.7-.3-.4-.1-.7.2-.8.6 0 .4.2.7.6.8zm-5.4-1.9c.8.4 1.7.8 2.6 1.2.4.1.8-.1.9-.4.1-.4-.1-.8-.4-.9-.9-.3-1.7-.7-2.4-1.1-.3-.2-.8-.1-.9.3-.3.3-.2.7.2.9zm-4.5-3.7c.6.7 1.2 1.4 2 2.1.3.2.7.2 1-.1.2-.3.2-.7-.1-1-.7-.6-1.3-1.2-1.9-1.9-.2-.3-.7-.3-1-.1-.2.3-.2.7 0 1zm-2.8-5.1s.3 1.2 1.2 2.7c.2.3.6.5.9.3s.5-.6.3-.9c-.4-.7-.7-1.3-.8-1.7-.1-.2-.1-.4-.2-.5v-.1c-.1-.4-.5-.6-.9-.5-.3 0-.6.3-.5.7z"/>
  <path d="M166.1 119.5h-11.8c-.2 0-.3 0-.5.1l-19.5 6.7h-.1c-.4.2-1.9.9-4.7 4.7-2.8 3.9-6.9 10.9-12.4 23.6-.2.5-.1 1.1.2 1.5 3.2 3.7 9.4 7.2 18.5 7.2.7 0 1.4 0 2.2-.1l-.1-1.4h-1.4v55.7c0 .6.5 1.2 1.1 1.4.1 0 11.4 2.5 28.1 2.5.8 0 1.4-.6 1.4-1.4s-.6-1.4-1.4-1.4c-8.2 0-15.1-.6-20-1.2-2.4-.3-4.3-.6-5.6-.8-.6-.1-1.1-.2-1.5-.3-.2 0-.3-.1-.4-.1h-.1l-.3 1.4h1.4v-55.7c0-.4-.2-.7-.4-1-.3-.3-.7-.4-1-.4-.7 0-1.3.1-2 .1-8.4 0-13.7-3.2-16.4-6.3l-1 .9 1.3.5c5.4-12.7 9.5-19.5 12.1-23.1 1.3-1.8 2.3-2.8 2.8-3.3.3-.3.5-.4.6-.5h.1l-.3-.6.3.6h.1l-.3-.6.3.6-.5-1.3.5 1.3 19.3-6.6h11.6c.8 0 1.4-.6 1.4-1.4-.2-.7-.9-1.3-1.6-1.3z"/>
  <path d="M139.4 161.9v-7.6c0-.8-.6-1.4-1.4-1.4-.8 0-1.4.6-1.4 1.4v7.6c0 .8.6 1.4 1.4 1.4.7 0 1.4-.6 1.4-1.4M153.2 122.1c0 .1 1 2.2 3.1 4.4 1 1.1 2.3 2.2 3.9 3.1 1.6.9 3.5 1.4 5.6 1.4.8 0 1.4-.6 1.4-1.4s-.6-1.4-1.4-1.4c-1.6 0-3.1-.4-4.3-1.1-1.9-1-3.3-2.6-4.3-3.9-.5-.7-.9-1.3-1.1-1.7-.1-.2-.2-.4-.3-.5l-.1-.1c-.3-.7-1.2-1-1.8-.7-.8.3-1.1 1.2-.7 1.9z"/>
  <path d="M166.1 122.3h11.6l19.3 6.6.5-1.3-.5 1.3.3-.6-.3.6h.1l.3-.6-.3.6s1.4.8 4 4.5c2.6 3.8 6.5 10.5 11.6 22.4l1.3-.5-1-.9c-2.7 3.1-8 6.3-16.4 6.3-.6 0-1.3 0-2-.1-.4 0-.8.1-1 .4-.3.3-.4.6-.4 1v55.7h1.4l-.3-1.4h-.1c-1.2.3-12 2.4-27.4 2.4-.8 0-1.4.6-1.4 1.4s.6 1.4 1.4 1.4c16.7 0 28-2.5 28.1-2.5.6-.1 1.1-.7 1.1-1.4v-55.7h-1.4l-.1 1.4c.7 0 1.5.1 2.2.1 9.1 0 15.2-3.5 18.5-7.2.4-.4.4-1 .2-1.5-5.5-12.8-9.6-19.8-12.4-23.6-2.8-3.8-4.3-4.6-4.7-4.7h-.1l-19.5-6.7c-.1 0-.3-.1-.5-.1h-11.8c-.8 0-1.4.6-1.4 1.4-.3.7.3 1.3 1.1 1.3z"/>
  <path d="M195.6 161.9v-7.6c0-.8-.6-1.4-1.4-1.4-.8 0-1.4.6-1.4 1.4v7.6c0 .8.6 1.4 1.4 1.4.7 0 1.4-.6 1.4-1.4M176.5 120.9l.3.1-.3-.1.3.1-.3-.1s-.9 2-2.7 3.8c-.9.9-1.9 1.8-3.2 2.5-1.2.7-2.6 1.1-4.2 1.1-.8 0-1.4.6-1.4 1.4s.6 1.4 1.4 1.4c2.1 0 4-.6 5.6-1.4 2.4-1.3 4.1-3.2 5.2-4.7 1.1-1.5 1.7-2.8 1.7-2.8.3-.7 0-1.5-.7-1.8-.6-.5-1.4-.2-1.7.5zM181.7 124.6c.4-.8.6-1.4.6-1.4.1-.4-.1-.8-.4-.9-.4-.1-.8.1-.9.4 0 .1-.2.5-.5 1.2-.2.3 0 .8.3.9.4.3.8.1.9-.2zm-3.4 4.6c.7-.7 1.4-1.5 1.9-2.2.2-.3.2-.7-.1-1-.3-.2-.7-.2-1 .1-.5.7-1.1 1.3-1.7 2-.3.3-.3.7 0 1 .2.4.7.4.9.1zm-4.7 3.3c.9-.4 1.8-.9 2.5-1.4.3-.2.4-.7.2-1s-.7-.4-1-.2c-.7.5-1.5.9-2.3 1.3-.3.2-.5.6-.3.9.1.4.6.6.9.4zM168 134c1-.1 2-.3 2.8-.5.4-.1.6-.5.5-.8-.1-.4-.5-.6-.8-.5-.8.2-1.7.4-2.6.5-.4 0-.7.4-.6.8 0 .3.4.6.7.5zm-5.7-.2c.9.2 1.8.3 2.9.3.4 0 .7-.3.7-.7 0-.4-.3-.7-.7-.7-1 0-1.8-.1-2.7-.3-.4-.1-.7.2-.8.6 0 .4.2.7.6.8zm-5.4-1.9c.8.4 1.7.8 2.6 1.2.4.1.8-.1.9-.4.1-.4-.1-.8-.4-.9-.9-.3-1.7-.7-2.4-1.1-.3-.2-.8-.1-.9.3-.3.3-.1.7.2.9zm-4.4-3.7c.6.7 1.2 1.4 2 2.1.3.2.7.2 1-.1.2-.3.2-.7-.1-1-.7-.6-1.3-1.2-1.9-1.9-.2-.3-.7-.3-1-.1-.3.3-.3.7 0 1zm-2.9-5.1s.3 1.2 1.2 2.7c.2.3.6.5.9.3.3-.2.5-.6.3-.9-.4-.7-.7-1.3-.8-1.7-.1-.2-.1-.4-.2-.5v-.1c-.1-.4-.5-.6-.9-.5-.3 0-.6.3-.5.7z"/>
  <circle cx="49.1" cy="173.4" r="8.5"/>
  <circle cx="166.1" cy="51" r="8.5"/>
</svg>
