<svg xmlns="http://www.w3.org/2000/svg" viewBox="0 0 49.8 48.7">
  <path d="M1.3 9.8C.7 9.2.3 8.5.1 7.6c-.2-.9-.2-1.8.2-2.7.3-1 .9-1.9 1.8-2.7C2.8 1.5 3.6.9 4.3.6 5 .2 5.7 0 6.4 0s1.3.1 1.9.3c.6.2 1.1.6 1.6 1.1.6.6 1 1.3 1.1 2.1.2.8.1 1.6-.2 2.5.7-.3 1.4-.5 2.1-.5s1.3.1 1.9.4 1.2.6 1.7 1.2c.8.8 1.3 1.6 1.5 2.6.3 1 .2 2-.2 3.1s-1 2.1-2 3.1-2 1.7-3.1 2.1-2.1.4-3.1.2c-1-.3-1.9-.8-2.6-1.5-1.6-1.6-2-3.5-1-5.7-1.9.4-3.4.1-4.7-1.2zm12.6-.5c-.5-.5-1-.8-1.5-.9-.5-.2-1.1-.2-1.6 0s-1 .5-1.5.9c-.6.6-.9 1.3-.9 2.2 0 .8.4 1.6 1.1 2.4.5.5 1 .8 1.5 1 .6.2 1.1.2 1.6 0 .5-.1 1-.4 1.4-.8s.7-.9.8-1.4c.1-.5.1-1.1 0-1.6-.1-.8-.4-1.3-.9-1.8zM3.8 3.9c-.6.6-.9 1.2-.8 1.9 0 .7.3 1.3.8 1.9.5.5 1.1.8 1.8.8s1.3-.3 1.9-.9c.3-.3.5-.6.6-.9s.2-.7.2-1-.1-.6-.2-1c-.1-.3-.3-.6-.6-.9-.4-.4-.8-.6-1.2-.7-.4-.1-.9-.1-1.4 0-.3.1-.7.4-1.1.8zM31.5 24.9c.6-.6 1.3-1 2.2-1.2.9-.2 1.8-.2 2.7.2 1 .3 1.9.9 2.7 1.8.7.7 1.3 1.5 1.6 2.2.4.7.6 1.4.6 2.1 0 .7-.1 1.3-.3 1.9-.2.6-.6 1.1-1.1 1.6-.6.6-1.3 1-2.1 1.1-.8.2-1.6.1-2.5-.2.3.7.5 1.4.5 2.1 0 .7-.1 1.3-.4 1.9-.3.6-.6 1.2-1.2 1.7-.8.8-1.6 1.3-2.6 1.5-1 .3-2 .2-3.1-.2s-2.1-1-3.1-2-1.7-2-2.1-3.1-.4-2.1-.2-3.1c.3-1 .8-1.9 1.5-2.6 1.6-1.6 3.5-2 5.7-1-.3-1.9 0-3.4 1.2-4.7zm.5 12.6c.5-.5.8-1 .9-1.5.2-.5.2-1.1 0-1.6s-.5-1-.9-1.5c-.6-.6-1.3-.9-2.2-.9-.8 0-1.6.4-2.4 1.1-.5.5-.8 1-1 1.5-.2.6-.2 1.1 0 1.6.1.5.4 1 .8 1.4s.9.7 1.4.8 1.1.1 1.6 0c.9-.2 1.4-.5 1.8-.9zm5.5-10.1c-.6-.6-1.2-.9-1.9-.8-.7 0-1.3.3-1.9.8-.5.5-.8 1.1-.8 1.8s.3 1.3.9 1.9c.3.3.6.5.9.6s.7.2 1 .2.6-.1 1-.2c.3-.1.6-.3.9-.6.4-.4.6-.8.7-1.2s.1-.9 0-1.4c-.1-.3-.4-.7-.8-1.1z"/>
</svg>
