<svg xmlns="http://www.w3.org/2000/svg" viewBox="0 0 40.6 39.2">
  <path d="M5.9 15.6c-3.7 0-5.7-1.3-5.9-3.5-.2-1.9 1-4.4 3.3-7.3l.9-1.1L2.7.6c-.1-.2.1-.4.3-.3.8.2 1.3.2 1.6-.2.1-.1.2-.1.3 0 1 .6 1.8.5 2.7.1.1-.1.2 0 .3.1.2.4.7.5 1.5.3.2 0 .4.2.3.3L8.5 3.3h.1c.7-.3 1.5-.4 2.4-.1.1 0 .2.2.1.3 0 .1-.2.2-.3.1-.8-.3-1.5-.2-2.2.2h.2c.3 0 .5.1.8.2.5.2.9.6 1.1 1.2 0 .1 0 .3-.1.3h-.1c-.1 0-.2-.1-.2-.1-.2-.5-.5-.8-.9-1-.3-.1-.6-.2-1-.2l.5.6c1.8 2.3 3.2 4.8 3.3 6.9-.1 2.2-1.8 3.9-6.3 3.9zm0-.5c4.4 0 5.7-1.5 5.6-3.6-.1-2-1.7-4.6-3.6-7.1L7.6 4l-.3.2c-.4.2-.8.2-1.2.2-.3 0-.6-.1-.8-.2l-.7-.3-.4.4C1.6 7.4.4 10 .5 11.8c.1 2.1 1.7 3.3 5.4 3.3zM6 14c-.1 0-.2-.1-.2-.2v-.7h-.2c-.7-.1-1.4-.5-1.7-1.1-.1-.1 0-.3.1-.3.1-.1.3 0 .3.1.3.7 1.1 1 1.9.9s1.4-.5 1.4-1.3c0-.4-.2-.6-.4-.7-.3-.2-.7-.2-1.1-.3s-.9-.2-1.3-.4-.7-.6-.8-1.1c-.1-1 .6-1.6 1.4-1.8h.3v-.6c0-.1.1-.2.2-.2s.2.1.2.2v.7h.1c.5.1 1.1.4 1.5.9.1.1.1.3 0 .3-.1.1-.3.1-.3 0-.5-.7-1.3-.9-2-.8-.6.1-1 .5-1 1.1v.2c.1.3.3.5.5.6.3.2.7.2 1.1.3s.9.2 1.2.4c.4.2.6.6.7 1.1 0 1-.7 1.5-1.5 1.7l-.3.1v.8c.2 0 0 .1-.1.1zm-3.6-.2h-.1c-.5-.3-.9-.7-1-1.2-.2-.5-.2-1-.1-1.6 0-.1.1-.2.3-.2.1 0 .2.1.2.3-.1.5 0 1 .1 1.3.1.4.4.7.8.9.1.1.2.2.1.3-.2.1-.2.1-.3.2zM6.1 4h.2v-.1L6.8 2c0-.1.2-.2.3-.2.1 0 .2.2.2.3l-.4 1.8H7c.1 0 .2-.1.3-.1l.4-.2L9.1.9H9C8.5.9 8.1.8 7.8.5V.4l-.5.2c-.6.2-1.3.2-2-.1L5 .4l-.1.1c-.4.3-.8.3-1.3.3h-.1l1.4 2.9.5.2h.1l-.4-2.2c0-.1.1-.3.2-.3s.3.1.3.2L6.1 4h.1-.1zM26.7 32.9c-3.7 0-5.7-1.3-5.9-3.5-.2-1.9 1-4.4 3.3-7.3L25 21l-1.5-3.1c-.1-.2.1-.4.3-.3.8.2 1.3.2 1.6-.2.1-.1.2-.1.3 0 1 .6 1.8.5 2.7.1.1-.1.2 0 .3.1.2.4.7.5 1.5.3.2 0 .4.2.3.3l-1.2 2.4h.1c.7-.3 1.5-.4 2.4-.1.1 0 .2.2.1.3 0 .1-.2.2-.3.1-.8-.3-1.5-.2-2.2.2h.2c.3 0 .5.1.8.2.5.2.9.6 1.1 1.2 0 .1 0 .3-.1.3h-.1c-.1 0-.2-.1-.2-.1-.2-.5-.5-.8-.9-1-.3-.1-.6-.2-1-.2l.5.6c1.8 2.3 3.2 4.8 3.3 6.9-.1 2.3-1.8 3.9-6.3 3.9zm0-.4c4.4 0 5.7-1.5 5.6-3.6-.1-2-1.7-4.6-3.6-7.1l-.3-.4-.3.2c-.4.2-.8.2-1.2.2-.3 0-.6-.1-.8-.2l-.7-.3-.4.4c-2.6 3.1-3.8 5.7-3.7 7.5.1 2 1.8 3.3 5.4 3.3zm.2-1.2c-.1 0-.2-.1-.2-.2v-.7h-.2c-.7-.1-1.4-.5-1.7-1.1-.1-.1 0-.3.1-.3.1-.1.3 0 .3.1.3.7 1.1 1 1.9.9s1.4-.5 1.4-1.3c0-.4-.2-.6-.4-.7-.3-.2-.7-.2-1.1-.3s-.9-.2-1.3-.4-.7-.6-.8-1.1c-.1-1 .6-1.6 1.4-1.8h.3v-.6c0-.1.1-.2.2-.2s.2.1.2.2v.7h.1c.5.1 1.1.4 1.5.9.1.1.1.3 0 .3-.1.1-.3.1-.3 0-.5-.7-1.3-.9-2-.8-.6.1-1 .5-1 1.1v.2c.1.3.3.5.5.6.3.2.7.2 1.1.3s.9.2 1.2.4c.4.2.6.6.7 1.1 0 1-.7 1.5-1.5 1.7l-.3.1v.8c.1 0 0 .1-.1.1zm-3.7-.2h-.1c-.5-.3-.9-.7-1-1.2-.2-.5-.2-1-.1-1.6 0-.1.1-.2.3-.2.1 0 .2.1.2.3-.1.5 0 1 .1 1.3.1.4.4.7.8.9.1.1.2.2.1.3-.1.1-.2.2-.3.2zm3.7-9.8h.2v-.1l.5-1.9c0-.1.2-.2.3-.2.1 0 .2.2.2.3l-.4 1.8h.1c.1 0 .2-.1.3-.1l.4-.2 1.4-2.7h-.1c-.5 0-.9-.1-1.2-.4v-.1l-.5.2c-.6.2-1.3.2-2-.1l-.3-.1-.1.1c-.4.3-.8.3-1.3.3h-.1l1.4 2.9.5.2h.1l-.4-2.2c0-.1.1-.3.2-.3s.3.1.3.2l.5 2.4h.1-.1z"/>
</svg>
