<?xml version="1.0" encoding="UTF-8"?>
<svg width="448px" height="88px" viewBox="0 0 448 88" version="1.1" xmlns="http://www.w3.org/2000/svg" xmlns:xlink="http://www.w3.org/1999/xlink">
    <!-- Generator: Sketch 45.1 (43504) - http://www.bohemiancoding.com/sketch -->
    <title>logo</title>
    <desc>Created with Sketch.</desc>
    <defs></defs>
    <g id="Symbols" stroke="none" stroke-width="1" fill="none" fill-rule="evenodd">
        <g id="first-screen-S" transform="translate(0.000000, -80.000000)">
            <g id="logo">
                <g transform="translate(0.000000, 80.000000)">
                    <rect id="Rectangle-path" x="0" y="0" width="448" height="88"></rect>
                    <path d="M44.383,49.494 C34.143,59.734 24.048,68.626 19.243,72.814 L55.01,72.814 L55.01,86.816 L0,86.816 L0,72.814 L12.006,72.814 C12.788,72.814 12.989,71.731 12.258,71.451 L7.832,69.751 C6.383,69.194 6.023,67.309 7.165,66.256 C15.914,58.23 30.094,45.156 34.478,40.735 C38.301,36.911 42.03,32.655 42.03,26.368 C42.03,18.101 35.294,13.775 28.641,13.775 C21.931,13.775 15.138,18.101 15.138,26.368 L1.136,26.368 C1.136,9.862 15.121,0 28.641,0 C42.309,0 56.146,9.057 56.146,26.368 C56.146,37.731 48.201,45.676 44.383,49.494 L44.383,49.494 Z M92.671,27.263 C92.14,27.251 91.529,27.242 90.869,27.234 L84.69,27.246 C83.234,27.249 81.933,28.161 81.438,29.531 L79.135,35.893 C78.791,36.843 77.385,36.596 77.385,35.586 L77.385,27.251 L77.385,26.586 L77.385,19.099 L77.385,15.138 L116.783,15.138 L116.783,1.135 L63.949,1.135 L63.949,40.825 C63.949,40.825 85.888,40.587 92.596,40.809 C103.14,41.143 109.436,47.422 109.436,57.607 C109.436,67.229 102.529,73.949 92.638,73.949 C83.301,73.949 76.524,67.315 76.524,58.175 L62.409,58.127 C62.133,65.903 64.918,73.229 70.252,78.755 C75.975,84.685 83.927,87.951 92.638,87.951 C109.974,87.951 123.552,74.621 123.552,57.606 C123.552,39.827 111.141,27.633 92.671,27.263 L92.671,27.263 Z M379.574,54.713 C379.574,39.792 369.869,29.238 355.191,29.238 C347.815,29.238 338.059,33.123 332.89,40.739 C332.571,41.208 331.84,40.897 331.983,40.348 C332.513,38.316 333.353,35.615 334.567,33.082 L334.567,31.06 L322.073,31.06 L322.073,86.133 L335.903,86.133 L335.903,57.868 C335.903,47.557 343.545,40.885 351.914,40.885 C360.77,40.885 365.744,46.83 365.744,56.17 L365.744,86.133 L379.574,86.133 L379.574,54.713 L379.574,54.713 Z M213.152,29.239 C205.777,29.239 196.021,33.124 190.852,40.74 C190.804,40.811 190.71,40.934 190.593,41.086 C186.576,33.769 179.095,29.24 169.48,29.24 C162.106,29.24 152.349,33.125 147.18,40.741 C146.86,41.21 146.13,40.899 146.273,40.35 C146.804,38.318 147.642,35.617 148.857,33.084 L148.857,31.061 L136.363,31.061 L136.363,86.135 L150.192,86.135 L150.192,57.868 C150.192,47.557 157.834,40.885 166.205,40.885 C175.056,40.885 180.029,46.823 180.034,56.156 L180.034,86.133 L180.035,86.133 L193.865,86.133 L193.865,57.868 C193.865,47.557 201.506,40.885 209.877,40.885 C218.732,40.885 223.707,46.83 223.707,56.17 L223.707,86.133 L237.536,86.133 L237.536,54.713 C237.535,39.792 227.831,29.239 213.152,29.239 L213.152,29.239 Z M299.243,53.31 C296.888,46.11 289.88,40.313 279.191,40.313 C268.702,40.313 261.84,46.174 259.487,53.375 L299.243,53.31 Z M298.693,62.654 L262.692,62.719 C260.484,60.716 259.725,57.534 259.725,57.534 C259.395,57.098 258.689,57.308 258.664,57.854 C258.58,59.745 258.848,61.426 259.175,62.719 L259.159,62.719 C261.083,70.54 269.112,76.702 279.191,76.702 C288.818,76.702 292.854,73.503 296.336,69.179 L311.208,69.179 C306.855,80.16 295.545,87.953 279.314,87.953 C257.607,87.953 245.432,74.81 245.432,58.596 C245.432,42.384 256.902,29.24 279.314,29.24 C300.938,29.24 313.195,42.384 313.195,58.596 C313.195,59.974 313.096,61.329 312.914,62.655 L298.693,62.655 L298.693,62.654 Z M390.499,62.478 C390.499,77.399 400.204,87.953 414.882,87.953 C422.256,87.953 432.013,84.068 437.182,76.453 C437.501,75.983 438.232,76.294 438.089,76.844 C437.558,78.876 436.72,81.577 435.504,84.11 L435.504,86.132 L448,86.132 L448,31.058 L434.17,31.058 L434.17,59.324 C434.17,69.635 426.528,76.306 418.157,76.306 C409.301,76.306 404.327,70.362 404.327,61.022 L404.327,31.058 L390.498,31.058 L390.498,62.478 L390.499,62.478 Z" id="Shape" fill="#363839" fill-rule="nonzero"></path>
                </g>
            </g>
        </g>
    </g>
</svg>