<?xml version="1.0" encoding="utf-8"?>
<!-- Generator: Adobe Illustrator 19.2.0, SVG Export Plug-In . SVG Version: 6.00 Build 0)  -->
<svg version="1.1" id="Layer_1" xmlns="http://www.w3.org/2000/svg" xmlns:xlink="http://www.w3.org/1999/xlink" x="0px" y="0px"
	 width="520px" height="88px" viewBox="0 0 520 88" enable-background="new 0 0 520 88" xml:space="preserve">
<path fill="#F05565" d="M519.654,19.726v66.09h-12.729l-2.66-5.051c1.539-2.405,2.566-4.538,3.221-6.202
	c-0.479-0.24-0.312-0.156-0.791-0.397c-1.062,1.57-2.286,3.008-3.631,4.314l-0.001,0.003l-0.006-0.011
	C496.557,84.784,487.255,88,479.913,88c-17.614,0-29.26-12.664-29.26-30.57V19.726h16.595v35.956
	c0,11.21,5.968,18.343,16.596,18.343c10.045,0,19.215-8.006,19.215-20.38V19.726H519.654z M258.104,17.542
	c-7.342,0-16.645,3.216-23.146,9.528c0,0-1.797,1.731-4.099,4.39c-4.859-8.604-13.757-13.918-25.162-13.918
	c-7.342,0-16.645,3.216-23.146,9.528v-0.026l-0.007,0.018c-1.345,1.305-2.569,2.744-3.631,4.314c-0.479-0.24-0.312-0.156-0.79-0.397
	c0.814-2.066,2.188-4.847,4.428-7.988v-3.266h-16.596v66.09h16.596V51.897c0-12.374,9.171-20.38,19.215-20.38
	c10.627,0,16.596,7.133,16.596,18.343v35.956h16.595h0V51.897c0-12.374,9.171-20.38,19.215-20.38
	c10.627,0,16.596,7.133,16.596,18.343v35.956h16.595V48.112C287.364,30.206,275.718,17.542,258.104,17.542z M372.811,52.801
	c-0.001,1.653-0.122,3.278-0.342,4.87c0,0-64.506,0-64.488,0h-0.018c1.521,9.644,10.704,17.157,24.115,17.157
	c11.145,0,17.429-3.432,21.786-9.33h17.382C364.999,79.141,351.989,88.014,332.512,88c-26.05-0.019-41.032-15.802-41.018-35.259
	c0.014-19.456,13.69-35.219,40.585-35.199C358.028,17.561,372.826,33.344,372.811,52.801z M356.073,46.488
	c-2.82-8.642-11.166-15.964-23.994-15.974c-12.587-0.009-20.885,7.336-23.714,15.974H356.073z M416.336,17.542
	c-7.342,0-16.645,3.216-23.146,9.528v-0.026l-0.007,0.019c-1.344,1.305-2.569,2.744-3.631,4.314c-0.479-0.24-0.312-0.156-0.79-0.397
	c0.814-2.066,2.188-4.847,4.428-7.988v-3.266h-16.596v66.09h16.596V51.897c0-12.374,9.171-20.38,19.215-20.38
	c10.627,0,16.596,7.133,16.596,18.343v35.956h16.595V48.112C445.597,30.206,433.951,17.542,416.336,17.542z M119.923,29.333h-19.572
	l1.092-14.21h49.324l2.795-12.972H86.58l-3.104,40.398h36.909c17.532,0,24.182,7.226,24.182,16.139s-7.719,16.139-22.803,16.139
	c-15.084,0-22.803-7.226-22.803-16.139l-16.596-0.022c0,16.2,13.337,29.333,39.399,29.333c26.061,0,39.398-13.133,39.398-29.333
	S151.738,29.333,119.923,29.333z M78.797,29.333C78.797,13.133,65.46,0,39.398,0C13.337,0,0,13.133,0,29.333l16.596,0.022
	c0-8.913,7.719-16.139,22.803-16.139c15.084,0,22.803,7.226,22.803,16.139c0,6.882-3.219,10.924-16.396,19.061
	C28.901,58.854,0,72.475,0,72.475v13.341h78.797V72.475H27.956c0,0,27.817-12.427,40.627-22.666
	C75.194,44.525,78.797,37.433,78.797,29.333z"/>
<g>
	<rect fill="none" width="520" height="88"/>
</g>
</svg>
