<?xml version="1.0" encoding="utf-8"?>
<!-- Generator: Adobe Illustrator 19.2.0, SVG Export Plug-In . SVG Version: 6.00 Build 0)  -->
<svg version="1.1" id="Layer_1" xmlns="http://www.w3.org/2000/svg" xmlns:xlink="http://www.w3.org/1999/xlink" x="0px" y="0px"
	 width="16px" height="16px" viewBox="0 0 16 16" enable-background="new 0 0 16 16" xml:space="preserve">
<g>
	<rect fill="none" width="16" height="16"/>
	<path fill="#FFFFFF" d="M9.946,8.007c1.363-0.708,2.304-2.116,2.304-3.757C12.25,1.903,10.347,0,8,0S3.75,1.903,3.75,4.25
		c0,1.641,0.941,3.049,2.304,3.757C2.721,8.874,0.25,11.9,0.25,15.5h1.5c0-3.446,2.804-6.25,6.25-6.25s6.25,2.804,6.25,6.25h1.5
		C15.75,11.9,13.279,8.874,9.946,8.007z M8,1.5c1.516,0,2.75,1.234,2.75,2.75S9.516,7,8,7S5.25,5.766,5.25,4.25S6.484,1.5,8,1.5z"/>
</g>
</svg>
