<?xml version="1.0" encoding="UTF-8"?>
<svg width="22px" height="22px" viewBox="0 0 22 22" version="1.1" xmlns="http://www.w3.org/2000/svg" xmlns:xlink="http://www.w3.org/1999/xlink">
    <!-- Generator: Sketch 45.1 (43504) - http://www.bohemiancoding.com/sketch -->
    <title>account icon</title>
    <desc>Created with Sketch.</desc>
    <defs></defs>
    <g id="Symbols" stroke="none" stroke-width="1" fill="none" fill-rule="evenodd">
        <g id="header--version" transform="translate(-1035.000000, -1.000000)">
            <g id="header">
                <g id="account-icon" transform="translate(1034.000000, 0.000000)">
                    <rect id="Rectangle-path" x="0" y="0" width="24" height="24"></rect>
                    <path d="M12,2.5 C14.481,2.5 16.5,4.519 16.5,7 C16.5,9.481 14.481,11.5 12,11.5 C9.519,11.5 7.5,9.481 7.5,7 C7.5,4.519 9.519,2.5 12,2.5 L12,2.5 Z M12,1 C8.686,1 6,3.686 6,7 C6,10.314 8.686,13 12,13 C15.314,13 18,10.314 18,7 C18,3.686 15.314,1 12,1 L12,1 Z" id="Shape" fill="#2C2D33" fill-rule="nonzero"></path>
                    <path d="M2,23 C2,17.477 6.477,13 12,13 L12,13 C17.523,13 22,17.477 22,23" id="Shape" stroke="#2C2D33" stroke-width="1.5"></path>
                </g>
            </g>
        </g>
    </g>
</svg>