<?xml version="1.0" encoding="utf-8"?>
<!-- Generator: Adobe Illustrator 19.2.0, SVG Export Plug-In . SVG Version: 6.00 Build 0)  -->
<svg version="1.1" id="Layer_1" xmlns="http://www.w3.org/2000/svg" xmlns:xlink="http://www.w3.org/1999/xlink" x="0px" y="0px"
	 width="16px" height="16px" viewBox="0 0 16 16" enable-background="new 0 0 16 16" xml:space="preserve">
<rect id="frame" fill="none" width="16" height="16"/>
<g>
	<circle fill="#FFFFFF" cx="8" cy="5.5" r="1.5"/>
</g>
<g>
	<g>
		<path fill="#FFFFFF" d="M8,1.5c2.481,0,4.5,1.794,4.5,4c0,3.482-2.941,6.888-4.506,8.454C6.202,12.161,3.5,8.758,3.5,5.5
			C3.5,3.294,5.519,1.5,8,1.5 M8,0C4.686,0,2,2.462,2,5.5C2,11,8,16,8,16s6-5,6-10.5C14,2.462,11.314,0,8,0L8,0z"/>
	</g>
</g>
</svg>
