<?xml version="1.0" encoding="utf-8"?>
<!-- Generator: Adobe Illustrator 19.2.0, SVG Export Plug-In . SVG Version: 6.00 Build 0)  -->
<svg version="1.1" id="Layer_1" xmlns="http://www.w3.org/2000/svg" xmlns:xlink="http://www.w3.org/1999/xlink" x="0px" y="0px"
	 width="16px" height="16px" viewBox="0 0 16 16" enable-background="new 0 0 16 16" xml:space="preserve">
<rect id="frame" fill="none" width="16" height="16"/>
<rect x="3.5" y="9.25" fill="#FFFFFF" width="3" height="1.5"/>
<path fill="#FFFFFF" d="M14,2H2C0.895,2,0,2.895,0,4v8c0,1.105,0.895,2,2,2h12c1.105,0,2-0.895,2-2V4C16,2.895,15.105,2,14,2z
	 M2,3.5h12c0.276,0,0.5,0.224,0.5,0.5v1.25h-13V4C1.5,3.724,1.724,3.5,2,3.5z M14,12.5H2c-0.276,0-0.5-0.224-0.5-0.5V6.75h13V12
	C14.5,12.276,14.276,12.5,14,12.5z"/>
</svg>
