<?xml version="1.0" encoding="utf-8"?>
<!-- Generator: Adobe Illustrator 19.2.0, SVG Export Plug-In . SVG Version: 6.00 Build 0)  -->
<svg version="1.1" id="Layer_1" xmlns="http://www.w3.org/2000/svg" xmlns:xlink="http://www.w3.org/1999/xlink" x="0px" y="0px"
	 width="18px" height="18px" viewBox="0 0 18 18" enable-background="new 0 0 18 18" xml:space="preserve">
<rect fill="none" width="18" height="18"/>
<path fill="#FF6673" d="M9,1.5c4.136,0,7.5,3.364,7.5,7.5s-3.364,7.5-7.5,7.5S1.5,13.136,1.5,9S4.864,1.5,9,1.5 M9,0
	C4.029,0,0,4.029,0,9s4.029,9,9,9s9-4.029,9-9S13.971,0,9,0L9,0z"/>
<polygon fill-rule="evenodd" clip-rule="evenodd" fill="#FF6673" points="9.75,8.25 9.75,5 8.25,5 8.25,8.25 5,8.25 5,9.75 
	8.25,9.75 8.25,13 9.75,13 9.75,9.75 13,9.75 13,8.25 "/>
</svg>
