<?xml version="1.0" encoding="utf-8"?>
<!-- Generator: Adobe Illustrator 19.2.0, SVG Export Plug-In . SVG Version: 6.00 Build 0)  -->
<svg version="1.1" id="Layer_1" xmlns="http://www.w3.org/2000/svg" xmlns:xlink="http://www.w3.org/1999/xlink" x="0px" y="0px"
	 width="16px" height="16px" viewBox="0 0 16 16" enable-background="new 0 0 16 16" xml:space="preserve">
<rect id="frame" fill="none" width="16" height="16"/>
<polygon fill-rule="evenodd" clip-rule="evenodd" fill="#282828" points="91.75,118.25 91.75,114.75 90.25,114.75 90.25,119.75 
	95.25,119.75 95.25,118.25 "/>
<path fill="#282828" d="M91,112.5c3.584,0,6.5,2.916,6.5,6.5s-2.916,6.5-6.5,6.5s-6.5-2.916-6.5-6.5S87.416,112.5,91,112.5 M91,111
	c-4.418,0-8,3.582-8,8s3.582,8,8,8s8-3.582,8-8S95.418,111,91,111L91,111z"/>
<g>
	<polygon fill-rule="evenodd" clip-rule="evenodd" fill="#FFFFFF" points="8.75,7.25 8.75,3.75 7.25,3.75 7.25,8.75 12.25,8.75 
		12.25,7.25 	"/>
	<path fill="#FFFFFF" d="M8,1.5c3.584,0,6.5,2.916,6.5,6.5s-2.916,6.5-6.5,6.5S1.5,11.584,1.5,8S4.416,1.5,8,1.5 M8,0
		C3.582,0,0,3.582,0,8s3.582,8,8,8s8-3.582,8-8S12.418,0,8,0L8,0z"/>
</g>
</svg>
