<?xml version="1.0" encoding="utf-8"?>
<!-- Generator: Adobe Illustrator 19.2.0, SVG Export Plug-In . SVG Version: 6.00 Build 0)  -->
<svg version="1.1" id="Layer_1" xmlns="http://www.w3.org/2000/svg" xmlns:xlink="http://www.w3.org/1999/xlink" x="0px" y="0px"
	 width="16px" height="16px" viewBox="0 0 16 16" enable-background="new 0 0 16 16" xml:space="preserve">
<rect id="frame" fill="none" width="16" height="16"/>
<g>
	<path fill="#FFFFFF" d="M11,1.5c0.276,0,0.5,0.224,0.5,0.5v12c0,0.276-0.224,0.5-0.5,0.5H5c-0.276,0-0.5-0.224-0.5-0.5V2
		c0-0.276,0.224-0.5,0.5-0.5H11 M11,0H5C3.895,0,3,0.895,3,2v12c0,1.105,0.895,2,2,2h6c1.105,0,2-0.895,2-2V2
		C13,0.895,12.105,0,11,0L11,0z"/>
</g>
<circle fill="#FFFFFF" cx="8" cy="11.5" r="1.25"/>
</svg>
