<?xml version="1.0" encoding="utf-8"?>
<!-- Generator: Adobe Illustrator 19.2.0, SVG Export Plug-In . SVG Version: 6.00 Build 0)  -->
<svg version="1.1" id="Layer_1" xmlns="http://www.w3.org/2000/svg" xmlns:xlink="http://www.w3.org/1999/xlink" x="0px" y="0px"
	 width="24px" height="16px" viewBox="0 0 24 16" enable-background="new 0 0 24 16" xml:space="preserve">
<rect fill="none" width="24" height="16"/>
<g opacity="0.2">
	<path fill="#DAE2F2" d="M22,1c0.551,0,1,0.449,1,1v12c0,0.551-0.449,1-1,1H2c-0.551,0-1-0.449-1-1V2c0-0.551,0.449-1,1-1H22 M22,0
		H2C0.895,0,0,0.895,0,2v12c0,1.1,0.9,2,2,2h20c1.105,0,2-0.895,2-2V2C24,0.9,23.1,0,22,0L22,0z"/>
</g>
<path opacity="0.4" fill-rule="evenodd" clip-rule="evenodd" fill="black" d="M7.5,7L7.5,7c0.552,0,1,0.448,1,1s-0.448,1-1,1
	s-1-0.448-1-1S6.948,7,7.5,7z"/>
<path opacity="0.4" fill-rule="evenodd" clip-rule="evenodd" fill="black" d="M12,7L12,7c0.552,0,1,0.448,1,1s-0.448,1-1,1
	s-1-0.448-1-1S11.448,7,12,7z"/>
<path opacity="0.4" fill-rule="evenodd" clip-rule="evenodd" fill="black" d="M16.5,7L16.5,7c0.552,0,1,0.448,1,1s-0.448,1-1,1
	s-1-0.448-1-1S15.948,7,16.5,7z"/>
</svg>
