<?xml version="1.0" encoding="utf-8"?>
<!-- Generator: Adobe Illustrator 19.2.0, SVG Export Plug-In . SVG Version: 6.00 Build 0)  -->
<svg version="1.1" id="Layer_1" xmlns="http://www.w3.org/2000/svg" xmlns:xlink="http://www.w3.org/1999/xlink" x="0px" y="0px"
	 width="20px" height="20px" viewBox="0 0 20 20" enable-background="new 0 0 20 20" xml:space="preserve">
<g>
	<rect fill="none" width="20" height="20"/>
	<path fill="#FF4C4C" d="M17,8c-0.375,1.125-1.094,2.297-2,3c0-2.969-1.125-9-7-9c0.958,4.958-2,7-2,7L4,6c0,0-1.439,3.033-2,4
		c-0.585,1.009-0.964,1.836-0.99,3H1v0.2C1,16.403,3.597,19,6.8,19H13c3.314,0,6-2.686,6-6l0,0C19,10.021,17,8,17,8z"/>
</g>
</svg>
