<?xml version="1.0" encoding="utf-8"?>
<!-- Generator: Adobe Illustrator 19.2.0, SVG Export Plug-In . SVG Version: 6.00 Build 0)  -->
<svg version="1.1" id="Layer_1" xmlns="http://www.w3.org/2000/svg" xmlns:xlink="http://www.w3.org/1999/xlink" x="0px" y="0px"
	 width="40px" height="40px" viewBox="0 0 40 40" enable-background="new 0 0 40 40" xml:space="preserve">
<rect fill="none" width="40" height="40"/>
<g>
	<path id="Blue_1_" fill="#363839" d="M36.903,39C38.061,39,39,38.061,39,36.903V3.097C39,1.939,38.061,1,36.903,1H3.097
		C1.939,1,1,1.939,1,3.097v33.806C1,38.061,1.939,39,3.097,39H36.903z"/>
	<path id="f" fill="#FFFFFF" d="M27.219,39V24.285h4.94l0.739-5.735h-5.679v-3.662c0-1.66,0.461-2.792,2.842-2.792l3.037-0.001
		V6.965c-0.525-0.07-2.328-0.226-4.425-0.226c-4.378,0-7.376,2.673-7.376,7.581v4.229h-4.952v5.735h4.952V39H27.219z"/>
</g>
</svg>
