<?xml version="1.0" encoding="utf-8"?>
<!-- Generator: Adobe Illustrator 19.2.0, SVG Export Plug-In . SVG Version: 6.00 Build 0)  -->
<svg version="1.1" id="Layer_1" xmlns="http://www.w3.org/2000/svg" xmlns:xlink="http://www.w3.org/1999/xlink" x="0px" y="0px"
	 width="40px" height="40px" viewBox="0 0 40 40" enable-background="new 0 0 40 40" xml:space="preserve">
<g>
	<g>
		<path fill="#363839" d="M20,3.865c5.255,0,5.878,0.02,7.953,0.115c1.919,0.088,2.961,0.408,3.655,0.678
			c0.919,0.357,1.574,0.784,2.263,1.472c0.689,0.689,1.115,1.344,1.472,2.263c0.27,0.694,0.59,1.736,0.678,3.655
			c0.095,2.075,0.115,2.698,0.115,7.953s-0.02,5.878-0.115,7.953c-0.088,1.919-0.408,2.961-0.678,3.655
			c-0.357,0.919-0.784,1.574-1.472,2.263c-0.689,0.689-1.344,1.115-2.263,1.472c-0.694,0.27-1.736,0.59-3.655,0.678
			c-2.075,0.095-2.697,0.115-7.953,0.115s-5.878-0.02-7.953-0.115c-1.919-0.088-2.961-0.408-3.655-0.678
			c-0.919-0.357-1.574-0.784-2.263-1.472c-0.689-0.689-1.115-1.344-1.472-2.263c-0.27-0.694-0.59-1.736-0.678-3.655
			C3.885,25.878,3.865,25.255,3.865,20s0.02-5.878,0.115-7.953c0.088-1.919,0.408-2.961,0.678-3.655
			C5.014,7.474,5.441,6.818,6.13,6.13c0.689-0.689,1.344-1.115,2.263-1.472c0.694-0.27,1.736-0.59,3.655-0.678
			C14.122,3.885,14.745,3.865,20,3.865 M20,0.319c-5.345,0-6.015,0.023-8.115,0.118C9.791,0.533,8.36,0.865,7.108,1.352
			c-1.294,0.503-2.392,1.176-3.486,2.27c-1.094,1.094-1.767,2.192-2.27,3.486C0.865,8.36,0.533,9.791,0.437,11.885
			C0.341,13.985,0.319,14.655,0.319,20c0,5.345,0.023,6.015,0.118,8.115c0.096,2.095,0.428,3.526,0.915,4.777
			c0.503,1.294,1.176,2.392,2.27,3.486c1.094,1.094,2.192,1.767,3.486,2.27c1.252,0.487,2.683,0.819,4.777,0.915
			c2.099,0.096,2.769,0.118,8.115,0.118s6.015-0.023,8.115-0.118c2.095-0.096,3.526-0.428,4.777-0.915
			c1.294-0.503,2.392-1.176,3.486-2.27c1.094-1.094,1.767-2.192,2.27-3.486c0.487-1.252,0.819-2.683,0.915-4.777
			c0.096-2.099,0.118-2.769,0.118-8.115s-0.023-6.015-0.118-8.115c-0.096-2.095-0.428-3.526-0.915-4.777
			c-0.503-1.294-1.176-2.392-2.27-3.486c-1.094-1.094-2.192-1.767-3.486-2.27c-1.252-0.487-2.683-0.819-4.777-0.915
			C26.015,0.341,25.345,0.319,20,0.319L20,0.319z"/>
		<path fill="#363839" d="M20,9.893C14.418,9.893,9.893,14.418,9.893,20S14.418,30.107,20,30.107S30.107,25.582,30.107,20
			S25.582,9.893,20,9.893z M20,26.56c-3.623,0-6.56-2.937-6.56-6.56c0-3.623,2.937-6.56,6.56-6.56c3.623,0,6.56,2.937,6.56,6.56
			C26.56,23.623,23.623,26.56,20,26.56z"/>
		<circle fill="#363839" cx="30.506" cy="9.494" r="2.362"/>
	</g>
	<rect fill="none" width="40" height="40"/>
</g>
</svg>
