<?xml version="1.0" encoding="utf-8"?>
<!-- Generator: Adobe Illustrator 19.2.0, SVG Export Plug-In . SVG Version: 6.00 Build 0)  -->
<svg version="1.1" id="Layer_1" xmlns="http://www.w3.org/2000/svg" xmlns:xlink="http://www.w3.org/1999/xlink" x="0px" y="0px"
	 width="24px" height="24px" viewBox="0 0 24 24" enable-background="new 0 0 24 24" xml:space="preserve">
<rect fill="none" width="24" height="24"/>
<path fill="#363839" d="M16,1H8C6.346,1,5,2.346,5,4v16c0,1.654,1.346,3,3,3h8c1.654,0,3-1.346,3-3V4C19,2.346,17.654,1,16,1z
	 M17,20c0,0.552-0.448,1-1,1H8c-0.552,0-1-0.448-1-1v-3h10V20z M17,15H7V7h10V15z M17,5H7V4c0-0.552,0.448-1,1-1h8
	c0.552,0,1,0.448,1,1V5z"/>
<path fill="#363839" d="M12.5,20h-1c-0.276,0-0.5-0.224-0.5-0.5v-1c0-0.276,0.224-0.5,0.5-0.5h1c0.276,0,0.5,0.224,0.5,0.5v1
	C13,19.776,12.776,20,12.5,20z"/>
</svg>
