<?xml version="1.0" encoding="utf-8"?>
<!-- Generator: Adobe Illustrator 19.2.0, SVG Export Plug-In . SVG Version: 6.00 Build 0)  -->
<svg version="1.1" id="Layer_1" xmlns="http://www.w3.org/2000/svg" xmlns:xlink="http://www.w3.org/1999/xlink" x="0px" y="0px"
	 width="40px" height="40px" viewBox="0 0 40 40" enable-background="new 0 0 40 40" xml:space="preserve">
<g>
	<path fill-rule="evenodd" clip-rule="evenodd" fill="#363839" d="M6.953,1.14h26.098c3.21,0,5.813,2.603,5.813,5.813v26.098
		c0,3.21-2.603,5.813-5.813,5.813H6.953c-3.21,0-5.813-2.603-5.813-5.813V6.953C1.14,3.743,3.743,1.14,6.953,1.14L6.953,1.14z"/>
	<path fill="#FFFFFF" d="M28.547,20.316c0,0,3.26-4.598,3.584-6.109c0.108-0.54-0.13-0.842-0.691-0.842c0,0-1.878,0-2.828,0
		c-0.648,0-0.885,0.281-1.079,0.691c0,0-1.529,3.258-3.389,5.311c-0.597,0.664-0.901,0.863-1.23,0.863
		c-0.266,0-0.389-0.222-0.389-0.82v-5.246c0-0.734-0.086-0.95-0.691-0.95H17.3c-0.345,0-0.561,0.201-0.561,0.475
		c0,0.691,1.058,0.847,1.058,2.72v3.864c0,0.777-0.043,1.079-0.41,1.079c-0.971,0-3.281-3.346-4.576-7.145
		c-0.259-0.777-0.54-0.993-1.274-0.993H8.709c-0.41,0-0.712,0.281-0.712,0.691c0,0.756,0.885,4.253,4.361,8.937
		c2.331,3.152,5.397,4.857,8.16,4.857c1.684,0,2.094-0.281,2.094-0.993v-2.418c0-0.604,0.237-0.863,0.583-0.863
		c0.388,0,1.074,0.125,2.677,1.705c1.9,1.813,2.029,2.569,3.065,2.569h3.173c0.324,0,0.626-0.151,0.626-0.691
		c0-0.712-0.928-1.986-2.353-3.497c-0.583-0.777-1.533-1.619-1.835-2.008C28.115,21.05,28.245,20.791,28.547,20.316z"/>
	<rect fill-rule="evenodd" clip-rule="evenodd" fill="none" width="40" height="40"/>
</g>
</svg>
